<svg xmlns="http://www.w3.org/2000/svg" viewBox="0 0 512 512">
  <rect width="512" height="512" rx="112" fill="#4f46e5"/>
  <g transform="translate(96,168) scale(8.2)" fill="#3b82f6">
    <path d="M12,21.35l-1.45-1.32C5.4,15.36,2,12.28,2,8.5 C2,5.42,4.42,3,7.5,3c1.74,0,3.41,0.81,4.5,2.09 C13.09,3.81,14.76,3,16.5,3 C19.58,3,22,5.42,22,8.5 c0,3.78-3.4,6.86-8.55,11.54L12,21.35z"/>
  </g>
  <g transform="translate(220,168) scale(8.2)" fill="#8b5cf6">
    <path d="M12,21.35l-1.45-1.32C5.4,15.36,2,12.28,2,8.5 C2,5.42,4.42,3,7.5,3c1.74,0,3.41,0.81,4.5,2.09 C13.09,3.81,14.76,3,16.5,3 C19.58,3,22,5.42,22,8.5 c0,3.78-3.4,6.86-8.55,11.54L12,21.35z"/>
  </g>
</svg>
