<svg xmlns="http://www.w3.org/2000/svg" viewBox="0 0 512 512">
  <rect width="512" height="512" fill="#4f46e5"/>
  <g transform="translate(256,256) scale(0.85) translate(-256,-256)">
    <!-- couch -->
    <rect x="80" y="234" width="56" height="150" rx="22" fill="#ffffff"/>
    <rect x="376" y="234" width="56" height="150" rx="22" fill="#ffffff"/>
    <rect x="110" y="214" width="292" height="110" rx="30" fill="#ffffff"/>
    <rect x="90" y="294" width="332" height="92" rx="26" fill="#ffffff"/>
    <rect x="128" y="386" width="18" height="28" rx="6" fill="#ffffff"/>
    <rect x="366" y="386" width="18" height="28" rx="6" fill="#ffffff"/>

    <!-- hearts -->
    <g transform="translate(126,120) scale(5.3)" fill="#3b82f6">
      <path d="M12,21.35l-1.45-1.32C5.4,15.36,2,12.28,2,8.5 C2,5.42,4.42,3,7.5,3c1.74,0,3.41,0.81,4.5,2.09 C13.09,3.81,14.76,3,16.5,3 C19.58,3,22,5.42,22,8.5 c0,3.78-3.4,6.86-8.55,11.54L12,21.35z"/>
    </g>
    <g transform="translate(224,120) scale(5.3)" fill="#8b5cf6">
      <path d="M12,21.35l-1.45-1.32C5.4,15.36,2,12.28,2,8.5 C2,5.42,4.42,3,7.5,3c1.74,0,3.41,0.81,4.5,2.09 C13.09,3.81,14.76,3,16.5,3 C19.58,3,22,5.42,22,8.5 c0,3.78-3.4,6.86-8.55,11.54L12,21.35z"/>
    </g>
  </g>
</svg>
